<?xml version="1.0" encoding="utf-8"?>
<!-- Generator: Adobe Illustrator 24.1.0, SVG Export Plug-In . SVG Version: 6.00 Build 0)  -->
<svg version="1.1" id="Capa_1" xmlns="http://www.w3.org/2000/svg" xmlns:xlink="http://www.w3.org/1999/xlink" x="0px" y="0px"
	 viewBox="0 0 100 100" style="enable-background:new 0 0 100 100;" xml:space="preserve">
<style type="text/css">
	.st0{stroke:#000000;stroke-width:0.75;stroke-miterlimit:10;}
	.st1{fill:#1A1413;}
</style>
<g>
	<g>
		<path class="st0" d="M55.47,28.87c-8.01,0-14.93,4.43-16.16,11.29c-0.06,0.35-0.01,0.91,0.09,1.24c0.59,1.82,1.91,2.7,3.97,2.7
			c3.05,0,2.7-2.04,3.34-4.33c0,0,1.24-6.03,8.47-6.77c7.99-0.81,13.76,6.33,13.76,18.07c0,11.56-6.19,17.89-14.86,17.89
			c-4.85,0-9.17-2.11-12.07-5.91c-0.59-0.77-1.49-1.24-2.46-1.24l-2.12,0.01c-0.91,0-1.65,0.73-1.65,1.64V77.2
			c0,2.8-0.06,5.6-0.15,8.4c0,0.08-0.06,0.15-0.15,0.16l-4.42,0.56c-0.86,0.11-1.51,0.84-1.51,1.7v0.02c0,0.09,0.07,0.16,0.17,0.16
			h16.78c0.09,0,0.17-0.07,0.17-0.16l0,0c0-0.87-0.65-1.6-1.52-1.7l-3.93-0.46c-0.08-0.01-0.15-0.07-0.15-0.16
			c-0.03-3.15,0.05-13.74,0.05-13.74v-3.98c0-0.16,0.21-0.22,0.3-0.09c3.12,4.41,8.07,6.81,14.59,6.81
			c12.65,0,20.59-8.81,20.59-22.84C76.61,37.49,66.45,28.87,55.47,28.87z"/>
		<path class="st0" d="M60.09,45.34l-0.29-0.14c-0.53-0.27-1.19-0.11-1.53,0.37c-2.9,4.05-7.34,6.3-12.36,6.3
			c-8.68,0-14.87-6.33-14.87-17.89c0-11.74,5.72-18.07,13.76-18.07c0.54,0,1.11,0.03,1.7,0.09c2.03,0.21,3.72,1.64,4.28,3.59
			l0.94,3.29c0.65,2.29,1.85,4.13,4.89,4.13c1.48,0,2.59-0.45,3.31-1.39c0.76-0.98,0.86-2.3,0.49-3.49
			c-1.86-6.03-8.28-10.35-15.89-10.35c-10.99,0-21.14,8.62-21.14,23.02c0,14.03,7.94,22.84,20.59,22.84
			c8.27,0,14.03-3.83,16.71-10.78C60.91,46.29,60.66,45.62,60.09,45.34z"/>
	</g>
	<g>
		<path class="st1" d="M50,99.67C22.43,99.67,0,77.39,0,50C0,22.61,22.43,0.33,50,0.33c27.57,0,50,22.28,50,49.67
			C100,77.39,77.57,99.67,50,99.67z M50,5.15C25.1,5.15,4.85,25.27,4.85,50C4.85,74.73,25.1,94.85,50,94.85S95.15,74.73,95.15,50
			C95.15,25.27,74.9,5.15,50,5.15z"/>
	</g>
</g>
</svg>
